<svg width="576" height="320" viewBox="0 0 576 320" fill="none" xmlns="http://www.w3.org/2000/svg">
<path d="M13.1639 226H26.5608L26.7953 306.431L41.3254 306.594L107.346 252.874L107.113 239.472L80.3197 239.476V226.068L107.346 226.179C122.118 226.174 134.07 238.2 133.984 252.98L133.907 266.28L67.1573 320L13.3969 319.91C5.99959 319.91 0.0015029 313.908 0.0015029 306.507V239.403H0L13.1639 226Z" fill="#E6E6E6"/>
<path d="M174.096 306.492V252.876H200.89L214.287 239.472L241.081 239.213V293.094L214.287 293.088L200.89 306.492H174.096ZM254.476 226.069H174.377C159.426 226.069 147.302 238.186 147.302 253.145V306.498L160.699 319.902H240.8C255.749 319.902 267.874 307.772 267.874 292.813V239.472L254.476 226.069Z" fill="#E6E6E6"/>
<path d="M549.206 239.473L562.603 226.068H576V306.492L562.603 319.902H562.586C555.197 319.902 549.206 313.909 549.206 306.515V239.473Z" fill="#E6E6E6"/>
<path d="M535.811 293.088H522.413L508.888 306.623H468.827V293.088L485.493 279.683H522.413V265.909H502.621L535.811 239.213L522.413 226.068H428.635L415.239 239.213V252.876H442.033V239.213H482.224V252.876L465.982 265.909H428.635V279.683H448.813L415.239 306.623L428.638 319.767H522.413L535.811 306.623V293.088Z" fill="#E6E6E6"/>
<path d="M401.842 293.088H388.444L376.22 306.623H334.858V293.088L351.523 279.683H388.444V265.909H368.652L401.842 239.213L388.444 226.068H294.665L281.27 239.213V252.876H308.064V239.213H348.254V252.876L332.013 265.909H294.665V279.683H314.843L281.27 306.623L294.668 319.767H388.444L401.842 306.623V293.088Z" fill="#E6E6E6"/>
<g opacity="0.5">
<path d="M13.1639 113H26.5608L26.7953 193.431L41.3254 193.594L107.346 139.874L107.113 126.472L80.3197 126.476V113.068L107.346 113.179C122.118 113.174 134.07 125.2 133.984 139.98L133.907 153.28L67.1573 207L13.3969 206.91C5.99959 206.91 0.0015029 200.908 0.0015029 193.507V126.403H0L13.1639 113Z" fill="#E6E6E6"/>
<path d="M174.096 193.492V139.876H200.89L214.287 126.472L241.081 126.213V180.094L214.287 180.088L200.89 193.492H174.096ZM254.476 113.069H174.377C159.426 113.069 147.302 125.186 147.302 140.145V193.498L160.699 206.902H240.8C255.749 206.902 267.874 194.772 267.874 179.813V126.472L254.476 113.069Z" fill="#E6E6E6"/>
<path d="M549.206 126.473L562.603 113.068H576V193.492L562.603 206.902H562.586C555.197 206.902 549.206 200.909 549.206 193.515V126.473Z" fill="#E6E6E6"/>
<path d="M535.811 180.088H522.413L508.888 193.623H468.827V180.088L485.493 166.683H522.413V152.909H502.621L535.811 126.213L522.413 113.068H428.635L415.239 126.213V139.876H442.033V126.213H482.224V139.876L465.982 152.909H428.635V166.683H448.813L415.239 193.623L428.638 206.767H522.413L535.811 193.623V180.088Z" fill="#E6E6E6"/>
<path d="M401.842 180.088H388.444L376.22 193.623H334.858V180.088L351.523 166.683H388.444V152.909H368.652L401.842 126.213L388.444 113.068H294.665L281.27 126.213V139.876H308.064V126.213H348.254V139.876L332.013 152.909H294.665V166.683H314.843L281.27 193.623L294.668 206.767H388.444L401.842 193.623V180.088Z" fill="#E6E6E6"/>
</g>
<g opacity="0.24">
<path d="M13.1639 0H26.5608L26.7953 80.4305L41.3254 80.5944L107.346 26.8743L107.113 13.4717L80.3197 13.4763V0.067667L107.346 0.178942C122.118 0.174431 134.07 12.1996 133.984 26.9796L133.907 40.2799L67.1573 94L13.3969 93.9098C5.99959 93.9098 0.0015029 87.9085 0.0015029 80.5072V13.4026H0L13.1639 0Z" fill="#E6E6E6"/>
<path d="M174.096 80.4923V26.876H200.89L214.287 13.4719L241.081 13.2133V67.0943L214.287 67.0882L200.89 80.4923H174.096ZM254.476 0.0693359H174.377C159.426 0.0693359 147.302 12.1862 147.302 27.1452V80.4983L160.699 93.9024H240.8C255.749 93.9024 267.874 81.772 267.874 66.8131V13.4719L254.476 0.0693359Z" fill="#E6E6E6"/>
<path d="M549.206 13.4735L562.603 0.0678711H576V80.4924L562.603 93.9025H562.586C555.197 93.9025 549.206 87.9087 549.206 80.5149V13.4735Z" fill="#E6E6E6"/>
<path d="M535.811 67.0883H522.413L508.888 80.6232H468.827V67.0883L485.493 53.6827H522.413V39.9087H502.621L535.811 13.2133L522.413 0.0678711H428.635L415.239 13.2133V26.876H442.033V13.2133H482.224V26.876L465.982 39.9087H428.635V53.6827H448.813L415.239 80.6232L428.638 93.7671H522.413L535.811 80.6232V67.0883Z" fill="#E6E6E6"/>
<path d="M401.842 67.0883H388.444L376.22 80.6232H334.858V67.0883L351.523 53.6827H388.444V39.9087H368.652L401.842 13.2133L388.444 0.0678711H294.665L281.27 13.2133V26.876H308.064V13.2133H348.254V26.876L332.013 39.9087H294.665V53.6827H314.843L281.27 80.6232L294.668 93.7671H388.444L401.842 80.6232V67.0883Z" fill="#E6E6E6"/>
</g>
</svg>
